<?xml version="1.0" encoding="UTF-8"?>
<svg viewBox="0 0 139 58" version="1.1" xmlns="http://www.w3.org/2000/svg" xmlns:xlink="http://www.w3.org/1999/xlink">
    <!-- Generator: Sketch 63.1 (92452) - https://sketch.com -->
    <desc>WIN</desc>
    <g id="Symbols" stroke="none" stroke-width="1" fill="none" fill-rule="evenodd">
        <g id="Win-gg_logo_blue" transform="translate(0.000000, 0.000000)" fill="#FFFFFF" fill-rule="nonzero">
            <g id="logo_blue">
                <path d="M139,0 L110.928773,58 L0,58 L15.3691082,19.8177273 C19.372121,7.88066583 10.9241205,2.81522759 7.54894335,0 L7.54894335,0 L139,0 Z M36.7933328,5 L19.7953996,5 C19.7953996,5 25.7603735,7.85109614 21.0661334,21.707774 L8,53 L20.2388857,53 L43.6353,19.360116 L41.1338231,53 L51.6682063,53 L75,5 L59.4772392,5 C62.9355038,10.5626038 58.7596483,17.3464011 57.0800373,20.7956266 L53.1684196,28.8504116 L54.9373558,5 L44.2781418,5 L27.2154758,28.2572915 L36.7933328,5 Z M91,5 L80.7549957,5 L57,53 L67.3710466,53 L91,5 Z M105.839602,5 L95.4630156,5 L72,53 L82.2961184,53 L96.1781603,24.5937254 L97.0999526,53 L107.536984,53 L131,5 L120.824772,5 L106.761394,33.4812728 L105.839602,5 Z" id="Combined-Shape"></path>
            </g>
        </g>
    </g>
</svg>